# xmcd
#
# Track frame offsets: 
#        150
#        22200
#        53550
#        79875
#        100650
#        120750
#
# Disc length: 2032 seconds
#
# Revision: 0
# Processed by: cddbd v1.5.2PL0 Copyright (c) Steve Scherf et al.
# Submitted via: ExactAudioCopy v0.99pb4
#
DISCID=3d07ee06
DTITLE=Kontrabanda - Gyv(a)i
DYEAR=2007
DGENRE=Blues
TTITLE0=Pirmadienio bliuzas
TTITLE1=Ten, kur nera taves
TTITLE2=Ne pati geriausia diena
TTITLE3=Ir vel ir vel ir vel
TTITLE4=Varge varge, vaje vaje
TTITLE5=Terorozaro bliuzas
EXTD=CD1
EXTT0=
EXTT1=
EXTT2=
EXTT3=
EXTT4=
EXTT5=
PLAYORDER=
